# xmcd
#
# Track frame offsets:
# 150
# 13969
# 26269
# 34716
# 48667
# 60710
# 77001
# 95555
# 111932
# 128322
# 143937
# 160353
# 175286
# 187520
# 201783
# 219525
# 233541
# 249537
# 261640
# 274409
#
# Disc length: 3866 seconds
#
#
# Revision: 0
# Processed by: cddbd v1.5.1PL2 Copyright (c) Steve Scherf et al.
# Submitted via: FreeRIP 2.945 
#
DISCID=1a0f1814
DTITLE=Joias Sertanejas vol.01 - Joias Sertanejas
DYEAR=1900
DGENRE=
TTITLE0=01-Amargurado - Tião Carreiro e Pardinho
TTITLE1=02-Pedaço de Minha Vida - Matogrosso and Mathias
TTITLE2=03-Vinte Anos - Nenete and Docinho
TTITLE3=04-Coração Apaixonado - Silveira e Barrinha
TTITLE4=05-Passarinho do Peito Amarelo - Tibaji and Docinho
TTITLE5=06-Amor Distante - Filhos de Goias
TTITLE6=07-Toalha Molhada - Criolo and Juvenil
TTITLE7=08-Calvário da Vida - Pedro and Paulo
TTITLE8=09-Pranto Escondido - Mococa and Moraci
TTITLE9=10-Devolva a Passagem - Zé do Rancho and Zé Pinho
TTITLE10=11-Sublime Renúncia - Pery and Poty
TTITLE11=12-Dormindo e Sonhando - Creone and Barrerito
TTITLE12=13-Não Beba Mais Não - Duo Ciriema
TTITLE13=14-Saudade de Minha Terra - Belmonte and Mouraí
TTITLE14=15-Orgulhosa e Bonita - Tibaji and Miltinho
TTITLE15=16-Taça da Dor - Pedro Bento and Zé da Estrada
TTITLE16=17-Vestido Molhado - Mococa and Moraci
TTITLE17=18-Pedaço de Palma - Bia and Dino Franco
TTITLE18=19-Arrependida - Tião Carreiro and Pardinho
TTITLE19=20-Hoje Está Fazendo Um Ano - Silvio and Silverinha
EXTD=
EXTT0=
EXTT1=
EXTT2=
EXTT3=
EXTT4=
EXTT5=
EXTT6=
EXTT7=
EXTT8=
EXTT9=
EXTT10=
EXTT11=
EXTT12=
EXTT13=
EXTT14=
EXTT15=
EXTT16=
EXTT17=
EXTT18=
EXTT19=
PLAYORDER=
